<?xml version="1.0" encoding="utf-8"?>
<!-- Generator: Adobe Illustrator 16.0.0, SVG Export Plug-In . SVG Version: 6.00 Build 0)  -->
<!DOCTYPE svg PUBLIC "-//W3C//DTD SVG 1.1//EN" "http://www.w3.org/Graphics/SVG/1.1/DTD/svg11.dtd">
<svg version="1.1" id="Layer_1" xmlns="http://www.w3.org/2000/svg" xmlns:xlink="http://www.w3.org/1999/xlink" x="0px" y="0px"
	 width="595.279px" height="334.49px" viewBox="0 0 595.279 334.49" enable-background="new 0 0 595.279 334.49"
	 xml:space="preserve">
<path d="M-398.36,33.449c55.335,0,100.347,45.012,100.347,100.347c0,55.335-45.012,100.348-100.347,100.348
	c-55.334,0-100.347-45.013-100.347-100.348C-498.707,78.461-453.694,33.449-398.36,33.449 M-398.36,16.725
	c-64.66,0-117.071,52.411-117.071,117.071c0,64.66,52.411,117.072,117.071,117.072c64.661,0,117.071-52.412,117.071-117.072
	C-281.289,69.135-333.699,16.725-398.36,16.725L-398.36,16.725z M-431.194,75.26c-7.372,0-13.336,11.237-13.336,25.087
	c0,13.866,5.965,25.086,13.336,25.086c7.372,0,13.337-11.22,13.337-25.086C-417.857,86.497-423.822,75.26-431.194,75.26z
	 M-365.527,75.26c-7.371,0-13.336,11.237-13.336,25.087c0,13.866,5.965,25.086,13.336,25.086s13.337-11.22,13.337-25.086
	C-352.19,86.497-358.154,75.26-365.527,75.26z M-331.637,155.349c1.149-3.941-1.119-8.072-5.075-9.235
	c-3.941-1.178-8.071,1.135-9.235,5.062c-6.747,23.151-28.299,39.323-52.412,39.323c-24.112,0-45.665-16.172-52.419-39.323
	c-1.15-3.927-5.236-6.239-9.235-5.062c-3.948,1.164-6.209,5.294-5.061,9.235c8.596,29.464,36.031,50.041,66.715,50.041
	C-367.675,205.39-340.247,184.812-331.637,155.349z"/>
<path d="M297.64,33.449c55.335,0,100.347,45.012,100.347,100.347c0,55.335-45.012,100.348-100.347,100.348
	c-55.334,0-100.347-45.013-100.347-100.348C197.293,78.461,242.306,33.449,297.64,33.449 M297.64,16.725
	c-64.66,0-117.071,52.411-117.071,117.071c0,64.66,52.411,117.072,117.071,117.072c64.661,0,117.071-52.412,117.071-117.072
	C414.711,69.135,362.301,16.725,297.64,16.725L297.64,16.725z M264.806,75.26c-7.372,0-13.336,11.237-13.336,25.087
	c0,13.866,5.966,25.086,13.336,25.086c7.372,0,13.337-11.22,13.337-25.086C278.143,86.497,272.178,75.26,264.806,75.26z
	 M330.473,75.26c-7.371,0-13.336,11.237-13.336,25.087c0,13.866,5.965,25.086,13.336,25.086s13.337-11.22,13.337-25.086
	C343.81,86.497,337.846,75.26,330.473,75.26z M230.925,195.847c-1.149,3.941,1.119,8.071,5.075,9.235
	c3.941,1.178,8.071-1.135,9.235-5.062c6.747-23.151,28.299-39.324,52.411-39.324s45.665,16.172,52.42,39.324
	c1.149,3.927,5.235,6.239,9.234,5.062c3.948-1.164,6.21-5.294,5.062-9.235c-8.596-29.464-36.03-50.042-66.716-50.042
	C266.962,145.805,239.534,166.382,230.925,195.847z"/>
</svg>
