<?xml version="1.0" encoding="utf-8"?>
<!-- Generator: Adobe Illustrator 16.0.0, SVG Export Plug-In . SVG Version: 6.00 Build 0)  -->
<!DOCTYPE svg PUBLIC "-//W3C//DTD SVG 1.1//EN" "http://www.w3.org/Graphics/SVG/1.1/DTD/svg11.dtd">
<svg version="1.1" id="Layer_1" xmlns="http://www.w3.org/2000/svg" xmlns:xlink="http://www.w3.org/1999/xlink" x="0px" y="0px"
	 width="595.279px" height="334.49px" viewBox="0 0 595.279 334.49" enable-background="new 0 0 595.279 334.49"
	 xml:space="preserve">
<path d="M283.64,33.449c55.335,0,100.347,45.012,100.347,100.347c0,55.335-45.012,100.348-100.347,100.348
	c-55.334,0-100.347-45.013-100.347-100.348C183.293,78.461,228.306,33.449,283.64,33.449 M283.64,16.725
	c-64.66,0-117.071,52.411-117.071,117.071c0,64.66,52.411,117.072,117.071,117.072c64.661,0,117.071-52.412,117.071-117.072
	C400.711,69.135,348.301,16.725,283.64,16.725L283.64,16.725z M250.806,75.26c-7.372,0-13.336,11.237-13.336,25.087
	c0,13.866,5.965,25.086,13.336,25.086c7.372,0,13.337-11.22,13.337-25.086C264.143,86.497,258.178,75.26,250.806,75.26z
	 M316.473,75.26c-7.371,0-13.336,11.237-13.336,25.087c0,13.866,5.965,25.086,13.336,25.086s13.337-11.22,13.337-25.086
	C329.81,86.497,323.846,75.26,316.473,75.26z M350.363,155.349c1.149-3.941-1.119-8.072-5.075-9.235
	c-3.941-1.178-8.071,1.135-9.235,5.062c-6.747,23.151-28.299,39.323-52.412,39.323c-24.112,0-45.665-16.172-52.419-39.323
	c-1.15-3.927-5.236-6.239-9.235-5.062c-3.948,1.164-6.209,5.294-5.061,9.235c8.596,29.464,36.031,50.041,66.715,50.041
	C314.325,205.39,341.753,184.812,350.363,155.349z"/>
<path d="M758.973,33.449c55.335,0,100.347,45.012,100.347,100.347c0,55.335-45.012,100.348-100.347,100.348
	c-55.334,0-100.347-45.013-100.347-100.348C658.626,78.461,703.639,33.449,758.973,33.449 M758.973,16.725
	c-64.66,0-117.071,52.411-117.071,117.071c0,64.66,52.411,117.072,117.071,117.072c64.661,0,117.071-52.412,117.071-117.072
	C876.044,69.135,823.634,16.725,758.973,16.725L758.973,16.725z M726.139,75.26c-7.372,0-13.336,11.237-13.336,25.087
	c0,13.866,5.966,25.086,13.336,25.086c7.372,0,13.337-11.22,13.337-25.086C739.476,86.497,733.511,75.26,726.139,75.26z
	 M791.806,75.26c-7.371,0-13.336,11.237-13.336,25.087c0,13.866,5.965,25.086,13.336,25.086s13.337-11.22,13.337-25.086
	C805.143,86.497,799.179,75.26,791.806,75.26z M692.258,195.847c-1.149,3.941,1.119,8.071,5.075,9.235
	c3.941,1.178,8.071-1.135,9.235-5.062c6.747-23.151,28.299-39.324,52.411-39.324s45.665,16.172,52.42,39.324
	c1.149,3.927,5.235,6.239,9.234,5.062c3.948-1.164,6.21-5.294,5.062-9.235c-8.596-29.464-36.03-50.042-66.716-50.042
	C728.295,145.805,700.867,166.382,692.258,195.847z"/>
</svg>
